<?xml version="1.0" encoding="utf-8"?>
<!-- Generator: Adobe Illustrator 16.0.0, SVG Export Plug-In . SVG Version: 6.00 Build 0)  -->
<!DOCTYPE svg PUBLIC "-//W3C//DTD SVG 1.1//EN" "http://www.w3.org/Graphics/SVG/1.1/DTD/svg11.dtd">
<svg version="1.1" id="Diplomatic_x5F_icon_xA0_Image_1_"
	 xmlns="http://www.w3.org/2000/svg" xmlns:xlink="http://www.w3.org/1999/xlink" x="0px" y="0px" width="329px" height="329px"
	 viewBox="0 0 329 329" enable-background="new 0 0 329 329" xml:space="preserve">
<g>
	<path fill-rule="evenodd" clip-rule="evenodd" fill="#050505" d="M224.008,65.107c0,8.111,0,8.111,7.801,11.22
		c10.309,4.108,11.012,4.447,6.045,14.722c-3.708,7.672-2.393,12.674,4.162,17.145c0.27,0.185,0.477,0.464,0.714,0.697
		c7.175,7.048,7.175,7.048,0.18,14.017c-6.983,6.956-6.981,6.955-3.21,16.349c0.678,1.689,1.506,3.343,1.957,5.093
		c0.76,2.953,0.781,5.741-3.067,6.648c-0.162,0.038-0.333,0.054-0.486,0.114c-13.977,5.496-13.977,5.496-14.095,20.589
		c-0.045,5.929-1.398,7.268-7.39,7.308c-0.999,0.007-1.999,0.001-2.999,0.001c-10.766,0-10.758,0.003-14.545,10.164
		c-0.577,1.549-1.292,3.046-1.926,4.574c-1.372,3.303-3.587,3.976-6.818,2.504c-3.763-1.716-7.821-2.858-11.406-4.865
		c-2.752-1.541-4.119-0.559-5.859,1.313c-2.834,3.05-5.955,5.834-8.778,8.893c-2.848,3.085-5.516,3.383-8.412,0.154
		c-1.222-1.362-2.575-2.608-3.871-3.904c-6.794-6.796-6.788-6.781-15.581-2.536c-1.485,0.717-3.11,1.146-4.581,1.888
		c-4.145,2.088-6.192-0.038-7.615-3.615c-0.795-2-2.041-3.909-2.399-5.978c-1.392-8.043-6.476-9.118-13.643-8.749
		c-12.253,0.63-11.203,1.023-11.197-11.253c0.004-7.883,0.046-7.883-7.604-10.873c-11.152-4.358-11.986-4.74-7.008-15.619
		c3.598-7.864,2.116-12.69-4.294-17.264c-1.472-1.05-2.653-2.522-3.909-3.855c-3.24-3.438-2.954-5.087,0.629-8.036
		c2.942-2.422,5.439-5.379,8.336-7.861c1.944-1.665,1.022-3.301,0.375-4.888c-1.377-3.374-2.802-6.748-4.493-9.973
		c-2.172-4.144-0.57-6.609,3.195-8.355c4.062-1.884,8.023-4.068,12.237-5.511c2.332-0.798,2.603-1.955,2.561-3.928
		c-0.09-4.163,0.072-8.334-0.105-12.492c-0.177-4.15,1.294-6.422,5.759-5.959c0.495,0.052,0.999,0.008,1.499,0.007
		c13.254-0.023,13.254-0.023,17.804-12.372c2.278-6.184,3.151-6.59,9.015-4.199c1.378,0.562,2.939,0.866,4.109,1.713
		c7.603,5.503,13.207,2.7,18.038-4.052c0.86-1.203,2.087-2.146,3.162-3.191c2.714-2.642,5.434-2.924,8.229-0.078
		c2.317,2.36,4.95,4.458,6.982,7.035c2.427,3.077,4.854,2.505,7.75,1.043c2.807-1.417,5.821-2.43,8.596-3.902
		c3.94-2.092,6.267-0.737,7.786,3.076c1.531,3.842,3.193,7.633,4.67,11.495c0.928,2.424,2.176,3.761,5.117,3.512
		c3.805-0.323,7.659-0.103,11.492-0.073c5.662,0.042,7.029,1.426,7.088,7.11C224.021,61.774,224.008,63.44,224.008,65.107z
		 M220.988,66.621c0-1.667-0.178-3.356,0.035-4.996c0.56-4.322-1.018-6.094-5.531-5.688c-3.969,0.357-8.005-0.104-11.99,0.136
		c-2.773,0.168-4.291-0.86-5.271-3.366c-1.773-4.531-3.725-8.994-5.594-13.489c-0.715-1.72-1.381-2.423-3.541-1.316
		c-4.168,2.138-8.646,3.665-12.947,5.556c-2.107,0.927-3.078,0.175-4.865-1.3c-3.264-2.692-5.594-6.214-8.918-8.882
		c-2.24-1.798-2.963-1.139-4.285,0.158c-3.331,3.267-6.785,6.437-9.827,9.958c-1.83,2.118-3.625,2.311-5.896,1.388
		c-3.905-1.586-7.875-3.042-11.663-4.874c-2.999-1.449-4.81-2.307-5.932,2.245c-0.868,3.521-3.081,6.754-4.019,10.416
		c-0.644,2.514-2.252,3.707-5.118,3.514c-3.981-0.27-8.002,0.079-11.993-0.118c-2.728-0.135-3.896,0.544-3.701,3.547
		c0.27,4.148-0.063,8.334,0.124,12.491c0.147,3.27-0.246,5.36-4.227,6.258c-3.884,0.877-7.411,3.262-11.167,4.806
		c-3.187,1.31-4.043,2.71-2.18,6.192c1.502,2.808,2.723,5.88,4.105,8.819c1.508,3.208,1.849,5.952-1.547,8.539
		c-3.021,2.302-5.201,5.751-8.305,7.889c-2.339,1.61-1.497,2.248-0.192,3.541c3.55,3.519,7.006,7.136,10.626,10.58
		c1.792,1.705,2.353,3.28,1.219,5.67c-1.943,4.097-3.333,8.466-5.411,12.485c-1.449,2.803-0.302,3.82,1.998,4.698
		c3.939,1.503,7.831,3.143,11.823,4.488c2.333,0.786,3.427,1.913,3.274,4.541c-0.23,3.986,0.122,8.006-0.119,11.99
		c-0.178,2.94,0.95,3.668,3.689,3.546c4.491-0.199,9,0.024,13.497-0.087c2.084-0.052,3.348,0.563,4.162,2.616
		c1.793,4.523,3.939,8.908,5.705,13.442c0.938,2.41,1.992,3.255,4.542,2.015c3.792-1.844,7.822-3.211,11.561-5.147
		c2.171-1.124,3.533-0.948,5.161,0.813c2.825,3.058,5.99,5.805,8.761,8.906c2.065,2.312,3.555,2.87,5.816,0.148
		c2.44-2.936,5.553-5.31,8.014-8.229c2.869-3.404,5.487-4.438,9.733-1.851c3.815,2.325,9.042,5.708,12.339,4.629
		c3.859-1.264,4.173-7.847,5.926-12.139c1.542-3.777,3.43-5.846,7.874-5.261c3.44,0.452,6.991-0.007,10.487,0.119
		c2.813,0.103,3.977-1.092,3.787-3.858c-0.103-1.493,0.191-3.033-0.052-4.493c-1.478-8.867,0.811-15.256,10.684-17.005
		c1.072-0.19,1.968-1.344,3.043-1.559c4.42-0.884,4.972-2.715,2.634-6.616c-2.225-3.715-5.039-8.068-4.826-11.991
		c0.242-4.478,5.357-7.348,8.883-10.118c4.688-3.686,2.509-6.065-0.397-8.882c-0.477-0.462-0.978-0.901-1.489-1.324
		c-9.174-7.558-9.172-7.556-4.801-18.521c0.18-0.448,0.171-0.97,0.334-1.428c2.955-8.271,2.958-8.271-5.211-11.185
		C220.988,75.894,220.988,75.894,220.988,66.621z"/>
	<path fill-rule="evenodd" clip-rule="evenodd" fill="#130F0E" d="M108.237,184.847c4.872-1.274,8.294,1.36,10.011,7.404
		c1.126,3.967,3.229,7.646,4.713,11.524c0.778,2.035,1.658,2.364,3.649,1.398c4.635-2.249,9.44-4.147,14.09-6.367
		c2.487-1.188,4.47-0.809,6.306,1.091c0.116,0.12,0.207,0.271,0.34,0.365c6.868,4.862,7.939,10.35,4.862,18.65
		c-10.569,28.502-20.135,57.376-30.078,86.11c-0.811,2.345-1.245,5.213-4.165,5.692c-3.078,0.505-4.057-2.438-5.448-4.384
		c-4.446-6.221-8.943-12.415-13.106-18.823c-1.787-2.751-3.562-3.159-6.541-2.233c-7.932,2.465-15.993,4.51-23.928,6.964
		c-2.12,0.655-3.941,0.871-5.574-0.598c-1.681-1.513-0.834-3.404-0.246-5.104c11.205-32.339,22.532-64.637,33.566-97.034
		C98.662,183.712,102.943,185.257,108.237,184.847z M117.745,308.403c11.449-33.158,22.502-65.189,33.59-97.208
		c0.356-1.028,0.399-1.795-0.192-2.777c-3.761-6.255-7.644-7.433-14.502-4.386c-4.544,2.019-9.937,6.418-13.482,5.26
		c-4.041-1.32-4.569-8.507-6.553-13.167c-3.53-8.29-3.443-8.222-12.509-8.148c-2.538,0.021-3.9,0.727-4.744,3.179
		c-10.869,31.576-21.773,63.14-32.782,94.667c-1.35,3.867,0.186,3.854,3.083,3.017c8.139-2.352,16.359-4.451,24.406-7.08
		c3.387-1.106,5.095-0.175,6.922,2.542C106.256,292.145,111.76,299.836,117.745,308.403z"/>
	<path fill-rule="evenodd" clip-rule="evenodd" fill="#130F0F" d="M253.24,289.305c-8.193-1.854-16.822-3.618-25.337-5.822
		c-3.771-0.976-5.931-0.418-7.888,3.26c-3.741,7.036-8.131,13.725-12.144,20.621c-1.071,1.842-2.302,3.467-4.486,3.423
		c-2.399-0.049-3.071-2.222-3.845-4.067c-12.521-29.89-25.006-59.793-37.611-89.646c-1.165-2.758-0.731-4.727,1.271-6.695
		c3.682-3.621,7.361-7.247,10.945-10.964c2.027-2.104,4.119-2.325,6.75-1.189c4.729,2.042,9.59,3.772,14.324,5.798
		c2.238,0.958,3.465,0.901,4.393-1.767c1.581-4.545,3.691-8.903,5.438-13.394c1.13-2.904,3.123-3.933,6.162-3.954
		c3.035-0.021,4.935,0.94,6.16,3.881c13.172,31.598,26.454,63.149,39.646,94.738C258.508,287.096,257.086,289.295,253.24,289.305z
		 M254.928,286.466c-13.008-31.082-25.579-61.118-38.15-91.154c-0.705-1.682-1.474-3.339-2.112-5.045
		c-0.603-1.609-1.596-2.314-3.38-2.264c-1.682,0.048-2.762,0.45-3.416,2.183c-1.35,3.572-2.93,7.057-4.404,10.582
		c-3.5,8.36-3.473,8.297-11.748,5.142c-4.636-1.769-9.527-5.89-13.84-4.644c-4.244,1.225-7.239,6.515-11.002,9.766
		c-2.451,2.119-2.468,3.981-1.236,6.884c10.842,25.542,21.488,51.166,32.2,76.763c1.806,4.314,3.653,8.611,5.794,13.649
		c5.416-9.082,10.407-17.299,15.228-25.615c1.562-2.692,2.96-3.951,6.538-2.997C234.816,282.229,244.404,284.109,254.928,286.466z"
		/>
	<path fill-rule="evenodd" clip-rule="evenodd" fill="#F99F10" d="M220.988,66.621c0,9.272,0,9.272,8.818,12.417
		c8.169,2.914,8.166,2.913,5.211,11.185c-0.163,0.458-0.154,0.979-0.334,1.428c-4.371,10.965-4.373,10.963,4.801,18.521
		c0.512,0.423,1.013,0.862,1.489,1.324c2.906,2.816,5.086,5.196,0.397,8.882c-3.525,2.771-8.641,5.641-8.883,10.118
		c-0.213,3.923,2.602,8.276,4.826,11.991c2.338,3.901,1.786,5.732-2.634,6.616c-1.075,0.215-1.971,1.368-3.043,1.559
		c-9.873,1.749-12.161,8.138-10.684,17.005c0.243,1.46-0.051,3,0.052,4.493c0.189,2.767-0.974,3.961-3.787,3.858
		c-3.496-0.126-7.047,0.333-10.487-0.119c-4.444-0.585-6.332,1.483-7.874,5.261c-1.753,4.292-2.066,10.875-5.926,12.139
		c-3.297,1.079-8.523-2.304-12.339-4.629c-4.246-2.588-6.864-1.554-9.733,1.851c-2.461,2.92-5.574,5.294-8.014,8.229
		c-2.261,2.722-3.751,2.163-5.816-0.148c-2.771-3.102-5.937-5.849-8.761-8.906c-1.628-1.762-2.99-1.938-5.161-0.813
		c-3.739,1.937-7.769,3.304-11.561,5.147c-2.55,1.24-3.604,0.396-4.542-2.015c-1.765-4.534-3.911-8.919-5.705-13.442
		c-0.814-2.053-2.078-2.668-4.162-2.616c-4.497,0.111-9.005-0.112-13.497,0.087c-2.739,0.122-3.867-0.605-3.689-3.546
		c0.241-3.984-0.111-8.004,0.119-11.99c0.152-2.628-0.942-3.755-3.274-4.541c-3.992-1.346-7.884-2.985-11.823-4.488
		c-2.3-0.878-3.447-1.896-1.998-4.698c2.078-4.02,3.468-8.389,5.411-12.485c1.133-2.39,0.573-3.965-1.219-5.67
		c-3.62-3.444-7.076-7.062-10.626-10.58c-1.304-1.293-2.147-1.931,0.192-3.541c3.104-2.138,5.284-5.587,8.305-7.889
		c3.396-2.587,3.056-5.331,1.547-8.539c-1.382-2.939-2.603-6.012-4.105-8.819c-1.863-3.482-1.006-4.883,2.18-6.192
		c3.756-1.544,7.283-3.929,11.167-4.806c3.981-0.897,4.375-2.988,4.227-6.258c-0.188-4.157,0.146-8.343-0.124-12.491
		c-0.195-3.003,0.974-3.682,3.701-3.547c3.99,0.197,8.011-0.151,11.993,0.118c2.865,0.193,4.474-1,5.118-3.514
		c0.938-3.662,3.151-6.895,4.019-10.416c1.122-4.552,2.934-3.694,5.932-2.245c3.788,1.832,7.758,3.288,11.663,4.874
		c2.271,0.923,4.067,0.73,5.896-1.388c3.042-3.521,6.496-6.691,9.827-9.958c1.322-1.297,2.045-1.956,4.285-0.158
		c3.324,2.668,5.654,6.189,8.918,8.882c1.787,1.475,2.758,2.227,4.865,1.3c4.301-1.891,8.779-3.418,12.947-5.556
		c2.16-1.106,2.826-0.403,3.541,1.316c1.869,4.495,3.82,8.958,5.594,13.489c0.98,2.506,2.498,3.534,5.271,3.366
		c3.985-0.24,8.021,0.222,11.99-0.136c4.514-0.405,6.091,1.366,5.531,5.688C220.811,63.265,220.988,64.954,220.988,66.621z
		 M220.025,116.072c0.176-32.844-26.146-59.902-59.708-59.891c-33.678,0.012-60.219,25.798-60.362,59.67
		c-0.137,32.519,26.739,60.871,61.165,60.091C193.156,175.216,220.465,150.481,220.025,116.072z"/>
	<path fill-rule="evenodd" clip-rule="evenodd" fill="#FC3F34" d="M117.745,308.403c-5.985-8.567-11.488-16.259-16.764-24.103
		c-1.827-2.717-3.535-3.648-6.922-2.542c-8.047,2.629-16.267,4.729-24.406,7.08c-2.897,0.838-4.432,0.851-3.083-3.017
		c11.008-31.527,21.913-63.091,32.782-94.667c0.844-2.452,2.207-3.158,4.744-3.179c9.066-0.073,8.979-0.142,12.509,8.148
		c1.984,4.66,2.512,11.847,6.553,13.167c3.545,1.158,8.938-3.241,13.482-5.26c6.859-3.047,10.741-1.869,14.502,4.386
		c0.591,0.982,0.548,1.749,0.192,2.777C140.247,243.214,129.193,275.245,117.745,308.403z"/>
	<path fill-rule="evenodd" clip-rule="evenodd" fill="#FB3F34" d="M254.928,286.466c-10.523-2.356-20.111-4.237-29.529-6.751
		c-3.578-0.954-4.977,0.305-6.538,2.997c-4.82,8.316-9.812,16.533-15.228,25.615c-2.141-5.038-3.988-9.335-5.794-13.649
		c-10.712-25.597-21.358-51.221-32.2-76.763c-1.232-2.902-1.215-4.765,1.236-6.884c3.763-3.251,6.758-8.541,11.002-9.766
		c4.312-1.246,9.204,2.875,13.84,4.644c8.275,3.155,8.248,3.219,11.748-5.142c1.475-3.525,3.055-7.01,4.404-10.582
		c0.654-1.732,1.734-2.135,3.416-2.183c1.784-0.051,2.777,0.654,3.38,2.264c0.639,1.706,1.407,3.363,2.112,5.045
		C229.349,225.348,241.92,255.384,254.928,286.466z"/>
	<path fill-rule="evenodd" clip-rule="evenodd" fill="#050505" d="M220.025,116.072c0.439,34.409-26.869,59.144-58.906,59.87
		c-34.425,0.78-61.302-27.572-61.165-60.091c0.143-33.872,26.684-59.658,60.362-59.67C193.879,56.17,220.201,83.229,220.025,116.072
		z M217.018,115.998c-0.739-32.085-24.45-56.541-56.51-56.64c-32.457-0.1-57.225,23.438-57.364,56.488
		c-0.133,31.527,24.468,57.049,56.738,56.932C191.945,172.661,216.854,148.987,217.018,115.998z"/>
	<path fill-rule="evenodd" clip-rule="evenodd" fill="#13120C" d="M207.02,116.673c1.02,25.111-21.33,47.129-47.391,46.979
		c-25.258-0.147-46.963-21.999-46.813-47.359c0.154-26.109,21.48-46.955,46.93-47.169C185.986,68.902,207.984,90.598,207.02,116.673
		z M203.945,116.518c0.016-24.609-19.397-44.205-43.862-44.273c-24.139-0.067-43.925,19.592-43.998,43.715
		c-0.075,24.638,19.375,44.434,43.676,44.455C184.461,160.435,203.931,141.094,203.945,116.518z"/>
	<path fill-rule="evenodd" clip-rule="evenodd" fill="#FCDB58" d="M203.945,116.518c-0.015,24.576-19.484,43.917-44.184,43.896
		c-24.301-0.021-43.75-19.817-43.676-44.455c0.073-24.123,19.859-43.782,43.998-43.715
		C184.548,72.312,203.961,91.908,203.945,116.518z"/>
</g>
</svg>
