<?xml version="1.0" encoding="utf-8"?>
<!-- Generator: Adobe Illustrator 16.0.0, SVG Export Plug-In . SVG Version: 6.00 Build 0)  -->
<!DOCTYPE svg PUBLIC "-//W3C//DTD SVG 1.1//EN" "http://www.w3.org/Graphics/SVG/1.1/DTD/svg11.dtd">
<svg version="1.1" id="Diplomatic_xA0_Image_1_" xmlns="http://www.w3.org/2000/svg" xmlns:xlink="http://www.w3.org/1999/xlink"
	 x="0px" y="0px" width="1200px" height="400px" viewBox="0 0 1200 400" enable-background="new 0 0 1200 400" xml:space="preserve"
	>
<g>
	<path fill-rule="evenodd" clip-rule="evenodd" fill="#0C0E0E" d="M717.325,143.557c-10.666,0-21.332,0.06-31.997-0.043
		c-2.54-0.024-3.807,0.531-4.38,3.358c-4.892,24.113-10.1,48.163-14.881,72.298c-0.938,4.735-2.823,6.522-7.589,6.11
		c-4.302-0.371-8.66-0.104-12.992-0.07c-3.514,0.027-7.637-1.354-8.436,4.385c-0.197,1.414-2.116,2.479-4.014,2.432
		c-1.665-0.041-3.332-0.002-4.999-0.002c-11.178,0.001-11.178,0-14.958,10.267c-3.192,8.666-3.715,8.9-11.943,5.354
		c-11.131-4.797-11.131-4.797-19.761,3.83c-0.943,0.942-1.969,1.815-2.818,2.836c-3.046,3.655-6.021,3.681-9.1,0.035
		c-0.964-1.142-2.109-2.13-3.17-3.189c-7.094-7.093-7.094-7.093-16.369-2.541c-8.045,3.947-9.104,3.565-12.411-4.474
		c-4.983-12.114-4.983-12.114-18.396-12.117c-8.084-0.001-8.084-0.001-8.137-7.982c-0.078-11.868-0.211-11.549-11.243-16.122
		c-4.589-1.902-6.84-0.968-10.034,2.532c-9.727,10.657-21.853,16.394-36.568,14.257c-16.098-2.337-26.229-12.437-29.795-31.222
		c-7.034-37.058-2.88-72.831,14.668-106.605c2.77-5.331,6.331-10.172,11.116-13.953c10.371-8.195,23.185-4.997,28.276,7.208
		c4.807,11.523,3.869,23.506,2.085,35.428c-4.537,30.308-16.397,57.706-33.58,82.89c-1.551,2.273-1.401,3.451,0.357,5.318
		c6.44,6.833,15.143,8.647,23.615,4.211c11.264-5.9,17.771-16.221,23.984-26.739c1.243-2.104-0.529-2.999-1.602-4.131
		c-7.423-7.832-7.431-7.823,0.006-15.245c0.354-0.353,0.708-0.705,1.062-1.059c5.667-5.662,5.667-5.662,2.118-12.787
		c-5.304-10.647-4.367-12.962,6.731-17.023c2.174-0.796,4.167-2.208,6.386-2.726c2.194-0.513,2.478-1.648,2.441-3.509
		c-0.088-4.663-0.012-9.329-0.062-13.993c-0.036-3.331,1.506-4.954,4.869-4.801c0.831,0.038,1.666,0.006,2.499,0.005
		c13.097-0.018,13.097-0.018,17.68-12.527c2.208-6.029,3.147-6.409,9.131-3.993c4.577,1.848,9.548,5.556,13.695,4.814
		c3.942-0.705,7.059-6.097,10.511-9.455c4.154-4.043,6.641-4.452,10.297,0.172c5.646,7.139,10.893,9.459,19.752,4.322
		c7.683-4.453,8.54-3.24,11.741,5.546c4.053,11.121,4.053,11.121,15.933,11.121c10.979,0,10.979,0,10.979,11.229
		c0,2,0.077,4.004-0.021,5.998c-0.107,2.174,0.375,3.254,2.816,4.252c11.828,4.836,11.758,4.998,14.157-7.354
		c0.254-1.305,0.775-2.587,0.832-3.895c0.219-5.087,3.232-6.138,7.712-6.128c40.33,0.091,80.659,0.053,120.989,0.053
		c0.5,0,1-0.004,1.5,0.002c4.062,0.047,5.679,1.793,4.766,6.019c-6.816,31.528-13.475,63.091-20.312,94.614
		c-3.138,14.465-3.271,14.437-18.323,14.437c-2.999,0-5.999,0.007-8.999-0.002c-6.584-0.019-7.409-0.955-6.079-7.213
		c3.18-14.962,6.413-29.913,9.615-44.87c1.739-8.128,3.353-16.285,5.233-24.379c0.868-3.735,0.708-5.511-4.094-5.311
		C737.669,143.851,727.49,143.557,717.325,143.557z M624.31,228.972c0.833,0,1.665,0,2.498,0c8.162,0,8.163,0,8.163-7.921
		c0.001-1.833,0.001-3.665,0.001-5.497c-0.001-7.883-0.001-7.883,7.6-10.59c11.441-4.076,11.441-4.076,6.398-14.936
		c-0.137-0.294-0.254-0.601-0.422-0.877c-2.705-4.458-2.655-8.198,2.101-11.51c2.691-1.875,4.798-4.6,7.125-6.982
		c0.92-0.942,1.563-1.307-0.093-2.898c-3.457-3.322-6.405-7.135-10.309-10.096c-1.845-1.399-3.315-3.506-1.548-6.416
		c1.413-2.324,2.184-5.057,3.123-7.649c3.06-8.454,3.039-8.462-5.785-11.599c-8.191-2.912-8.191-2.912-8.19-11.499
		c0-2.499-0.132-5.006,0.031-7.494c0.203-3.104-1.188-4.126-4.147-4.018c-4.158,0.153-8.35-0.229-12.484,0.119
		c-3.637,0.307-5.395-1.106-6.535-4.423c-1.369-3.976-3.312-7.751-4.831-11.68c-0.91-2.352-1.854-3.301-4.519-1.926
		c-3.733,1.926-7.818,3.167-11.568,5.067c-2.717,1.377-3.975,0.574-6.11-1.432c-2.258-2.12-4.164-4.512-6.29-6.711
		c-3.019-3.122-5.389-3.394-8.392,0.252c-3.055,3.708-6.241,8.396-10.356,9.833c-4.006,1.399-8.45-3.102-13.011-4.154
		c-0.93-0.215-1.757-0.864-2.636-1.304c-2.615-1.309-4.041-1.367-5.26,2.214c-4.831,14.197-5.021,14.132-19.897,14.182
		c-0.499,0.002-1.01,0.066-1.497-0.01c-2.976-0.467-3.636,0.938-3.507,3.685c0.22,4.652-0.106,9.332,0.136,13.983
		c0.128,2.462-0.826,3.848-2.993,4.225c-2.187,0.38-3.897,1.652-5.833,2.484c-11.018,4.735-11.126,4.819-5.615,15.634
		c2.327,4.565,3.16,8.423-1.821,11.75c-1.494,0.997-2.619,2.548-3.916,3.843c-5.242,5.236-5.184,5.171,0.285,10.124
		c1.599,1.448,2.426,1.721,3.592-0.379c1.298-2.336,3.205-3.824,6.163-2.701c2.905,1.103,3.144,3.566,3.24,6.137
		c0.265,7.072-3.423,12.729-6.718,18.487c-4.031,7.048-4.103,7.007,3.543,10.195c10.001,4.171,10.001,4.171,9.966,14.58
		c-0.025,7.906,0.041,8.547,7.725,7.742c9.303-0.975,14.766,1.514,17.612,11.216c2.415,8.23,3.439,7.938,11.599,4.459
		c5.13-2.187,10.045-5.556,14.715,1.364c2.117,3.138,5.068,7.827,8.562,7.544c2.947-0.238,5.585-4.75,8.292-7.438
		c6.88-6.833,6.865-6.849,15.796-2.938c9.495,4.158,9.495,4.158,13.331-5.278C615.185,228.972,615.185,228.972,624.31,228.972z
		 M723.72,113.116c-19.656,0-39.314,0.16-58.966-0.125c-4.332-0.062-5.685,1.519-6.517,5.36c-1.857,8.572-2.362,17.459-5.363,25.744
		c-2.811,7.76-2.012,14.146,5.286,18.937c0.817,0.536,1.43,1.39,2.123,2.109c2.562,2.662,2.409,5.284-0.134,7.859
		c-0.937,0.948-1.779,2.028-2.842,2.806c-6.101,4.463-8.719,9.54-3.535,16.484c1.053,1.409,1.625,3.312,1.981,5.074
		c0.487,2.421,0.996,5.072-2.056,6.458c-2.874,1.306-5.717,2.688-8.636,3.884c-7.094,2.907-7.339,3.415-7.084,10.987
		c0.088,2.598,0.895,3.516,3.487,3.449c5.493-0.139,10.998-0.184,16.487,0.016c3.214,0.116,4.54-0.805,5.227-4.241
		c4.785-23.947,9.949-47.817,14.791-71.753c0.851-4.205,2.253-6.102,7.049-6.039c21.983,0.284,43.975,0.231,65.961,0.04
		c4.688-0.041,5.561,1.228,4.554,5.776c-5.239,23.683-10.114,47.447-15.215,71.161c-0.745,3.466-0.453,5.309,3.83,5.076
		c5.647-0.307,11.327-0.197,16.985-0.024c2.813,0.087,4.183-0.809,4.783-3.681c7.044-33.664,14.118-67.322,21.396-100.937
		c0.818-3.78-0.025-4.511-3.629-4.486C763.697,113.187,743.708,113.116,723.72,113.116z M477.898,100.672
		c0.138-5.707-0.386-11.354-2.137-16.774c-4.547-14.074-17.703-16.845-27.806-5.943c-4.927,5.315-8.382,11.553-11.315,18.117
		c-12.413,27.772-15.684,56.861-12.27,86.845c0.961,8.441,2.748,16.741,7.098,24.256c5.04,8.709,12.641,13.525,22.519,14.68
		c10.421,1.219,19.747-1.569,27.969-8.143c9.608-7.683,16.089-17.628,21.03-28.711c1.109-2.489,1.388-5.132,1.223-7.82
		c-0.07-1.153-0.138-2.505-1.536-2.829c-1.384-0.32-2.06,0.81-2.647,1.835c-1.983,3.465-3.85,7.002-5.942,10.399
		c-5.626,9.131-11.809,17.812-21.397,23.272c-10.781,6.14-22.169,3.89-29.974-5.59c-1.723-2.093-2.202-3.657-0.328-6.029
		c5.486-6.943,9.813-14.646,13.878-22.483C468.488,152.173,476.782,127.452,477.898,100.672z"/>
	<path fill-rule="evenodd" clip-rule="evenodd" fill="#0D1111" d="M365.184,174.707c4.065-5.847,7.7-11.547,13.023-15.899
		c12.63-10.326,29.297-5.806,34.741,9.557c2.463,6.951,2.528,13.967,0.584,21.091c-2.897,10.614-7.597,20.188-15.558,27.952
		c-7.305,7.124-15.618,9.906-25.748,5.578c-0.102,15.273,0.239,30.392-0.658,45.483c-0.899,15.132-2.354,30.18-7.409,44.611
		c-1.038,2.963-2.297,5.883-3.769,8.655c-5.306,9.992-12.889,14.059-22.212,12.107c-9.571-2.003-15.597-9.535-16.293-20.618
		c-0.782-12.444,1.704-24.51,4.65-36.479c6.679-27.14,15.458-53.568,27.121-79.004c1.856-4.049,1.323-8.225-1.799-15.736
		c-0.838-0.272-1.033,0.455-1.419,0.906c-8.82,10.306-15.072,22.64-25.037,32.021c-7.835,7.377-16.708,12.01-28.007,9.416
		c-6.954-1.596-11.919-5.684-15.318-11.777c-5.547-9.946-6.05-20.542-3.842-31.458c0.594-2.933,0.981-5.911,1.671-8.818
		c1.134-4.776,5.656-7.372,10.757-6.339c4.764,0.965,6.521,4.194,5.556,9.783c-1.414,8.188-3.044,16.379-1.368,24.744
		c1.728,8.621,7.783,11.552,15.564,7.304c7.224-3.943,11.984-10.434,16.583-16.981c2.289-3.259,4.957-6.5,6.23-10.173
		c2.581-7.443,9.731-10.691,14.032-16.526c2.461-3.34,7.481-2.607,11.211,0.466C361.631,167.177,362.944,171.021,365.184,174.707z
		 M364.377,182.088c-1.08-2.917-1.927-5.391-2.908-7.81c-1.2-2.957-2.727-5.748-5.332-7.719c-2.333-1.764-5.38-2.703-7.12-0.038
		c-4.107,6.295-11.193,9.862-14.276,17.238c-2.674,6.396-7.214,11.952-11.828,17.241c-3.187,3.654-6.652,7.006-10.982,9.328
		c-9.741,5.225-18.151,1.149-20.068-9.659c-1.516-8.548-0.211-16.931,1.53-25.246c0.7-3.346,0.282-5.764-3.31-6.449
		c-3.406-0.649-6.418,0.123-7.357,4.092c-0.574,2.424-0.915,4.902-1.366,7.355c-1.675,9.12-2.183,18.122,1.477,27.007
		c5.702,13.842,19.32,18.75,32.431,11.447c5.314-2.96,10.109-6.797,13.376-11.824c6.643-10.22,15.751-18.621,21.431-29.516
		c0.292-0.559,0.852-0.979,1.293-1.47c5.364,5.468,7.624,17.041,4.676,23.511c-12.041,26.421-21.064,53.875-27.69,82.107
		c-2.548,10.857-4.53,21.879-3.273,33.136c0.947,8.479,5.851,14.386,12.904,15.965c8.154,1.824,14.395-1.146,19.153-9.16
		c2.651-4.465,4.5-9.268,5.821-14.274c7.143-27.086,6.286-54.767,6.121-82.396c-0.014-2.233-0.002-4.468-0.002-6.884
		c12.622,6.347,20.137,5.073,29.088-5.07c7.457-8.449,11.996-18.427,13.545-29.554c1.892-13.582-4.75-24.441-15.845-26.854
		c-8.04-1.747-13.816,2.198-19.002,7.505C371.83,169.248,368.306,175.507,364.377,182.088z"/>
	<path fill-rule="evenodd" clip-rule="evenodd" fill="#0E1312" d="M133.759,72.611c-11.827,4.071-23.131,8.389-33.682,14.446
		c-1.844,1.059-3.462,2.574-5.022,4.051c-4.549,4.306-7.512,4.865-10.797,1.874c-4.089-3.722-4.916-9.373-1.885-13.497
		c1.903-2.59,4.445-4.463,7.265-5.969c38.917-20.784,80.376-31.145,124.546-30.036c14.008,0.352,27.809,2.303,41.037,7.345
		c27.453,10.465,36.99,31.683,33.292,58.667c-3.782,27.598-19.146,48.861-38.806,67.34c-32.864,30.888-72.394,46.898-116.935,51.344
		c-4.798,0.479-9.598,0.956-14.402,1.367c-5.167,0.441-9.113-1.44-11.365-6.284c-2.181-4.693,0.194-8.769,5.369-9.265
		c0.496-0.047,0.999-0.019,1.499-0.024c3.288-0.035,7.661,1.585,9.51-0.628c1.39-1.665-0.436-5.965-0.735-9.1
		c-1.956-20.491-0.721-40.899,1.862-61.244C127.459,119.763,130.604,96.552,133.759,72.611z M208.666,46.261
		c-11.014,0.058-20.307,0.657-29.567,1.802c-31.22,3.857-60.688,13.21-88.344,28.211c-2.641,1.433-5.147,3.166-6.594,5.94
		c-1.933,3.707,0.037,6.525,2.594,8.79c2.512,2.225,4.309-0.105,5.849-1.757c2.668-2.859,5.895-4.856,9.308-6.624
		c9.922-5.139,20.348-9.04,30.832-12.854c4.288-1.56,4.89-0.185,4.287,3.594c-4.144,25.965-7.634,52.022-10.52,78.151
		c-1.958,17.727-2.808,35.554-0.751,53.333c1.431,12.368,1.736,12.314-11.049,12.226c-2.069-0.015-4.703-0.717-5.397,2.201
		c-0.608,2.561,1.098,4.449,2.893,5.972c1.75,1.484,3.978,1.578,6.178,1.386c12.267-1.073,24.514-2.304,36.601-4.765
		c44.559-9.071,81.682-30.593,110.034-66.391c12.334-15.572,20.212-33.112,21.189-53.385c1.078-22.363-8.866-38.645-29.36-47.407
		C240.896,47.864,224.017,46.643,208.666,46.261z"/>
	<path fill-rule="evenodd" clip-rule="evenodd" fill="#0E1312" d="M817.804,191.967c5.833,0,11.301-0.13,16.757,0.062
		c2.289,0.08,2.807-1.107,3.173-2.857c2.963-14.146,5.872-28.306,8.966-42.423c0.681-3.105-0.728-3.22-3.087-3.208
		c-13.32,0.066-26.642,0.053-39.963,0.023c-6.829-0.016-7.437-0.863-5.96-7.661c1.479-6.816,3.049-13.619,4.3-20.479
		c0.693-3.802,2.622-5.344,6.423-5.334c23.812,0.063,47.623,0.004,71.436,0.054c5.332,0.012,6.406,1.423,5.272,6.755
		c-7.292,34.285-14.69,68.548-21.854,102.859c-0.839,4.018-2.374,5.561-6.559,5.532c-23.811-0.157-47.623-0.06-71.435-0.089
		c-5.333-0.007-6.321-1.066-5.255-6.214c3.472-16.754,7.183-33.459,10.569-50.229c0.647-3.208,2.207-4.024,5.087-3.994
		c7.492,0.077,14.985,0.047,22.479,0.017c3.775-0.016,5.041,1.818,4.27,5.396C820.885,177.3,819.397,184.434,817.804,191.967z
		 M820.986,222.082c11.158,0,22.326-0.274,33.469,0.137c4.406,0.163,5.66-1.551,6.433-5.358
		c3.437-16.931,7.082-33.818,10.674-50.717c3.386-15.926,6.841-31.836,10.151-47.777c0.448-2.156,1.969-5.246-2.569-5.241
		c-23.481,0.024-46.963,0.022-70.445-0.008c-2.147-0.003-3.27,0.646-3.702,2.987c-1.208,6.532-2.479,13.069-4.172,19.487
		c-1.042,3.955,0.095,4.761,3.914,4.707c13.986-0.199,27.978-0.106,41.966-0.045c1.88,0.008,4.609-1.04,3.706,3.078
		c-3.561,16.228-6.915,32.5-10.224,48.781c-0.464,2.279-1.476,3.006-3.683,2.974c-6.326-0.093-12.659-0.152-18.982,0.019
		c-3.191,0.087-3.479-1.04-2.793-3.853c1.65-6.773,2.867-13.652,4.42-20.453c0.511-2.24-0.031-2.952-2.324-2.916
		c-6.494,0.102-12.992,0.139-19.483-0.012c-2.756-0.063-3.779,1.16-4.29,3.668c-3.116,15.303-6.194,30.616-9.611,45.853
		c-0.927,4.135,0.377,4.811,4.074,4.753C798.669,221.97,809.829,222.082,820.986,222.082z"/>
	<path fill-rule="evenodd" clip-rule="evenodd" fill="#0D1111" d="M912.689,191.97c6.365,0,12.333-0.027,18.3,0.008
		c6.15,0.036,7.127,1.19,5.966,7.015c-1.364,6.845-2.879,13.661-4.113,20.528c-0.741,4.126-2.679,5.845-7.088,5.776
		c-14.987-0.229-29.98-0.076-44.971-0.093c-6.189-0.007-7.02-0.956-5.717-7.101c9.102-42.913,18.251-85.816,27.381-128.723
		c2.869-13.489,5.836-26.96,8.513-40.488c0.759-3.836,2.452-5.31,6.368-5.17c6.82,0.244,13.656,0.022,20.485,0.083
		c5.057,0.046,5.994,1.126,4.99,5.968c-3.744,18.061-7.481,36.125-11.415,54.145c-0.882,4.038-0.783,6.159,4.333,5.618
		c4.612-0.488,9.316-0.066,13.98-0.112c4.207-0.042,5.718,2.023,4.864,6.017c-1.632,7.636-3.524,15.227-4.823,22.919
		c-0.698,4.134-2.768,5.053-6.488,4.907c-5.655-0.221-11.325-0.006-16.987-0.085c-1.986-0.028-3.557,0.08-4.052,2.518
		C919.108,160.989,915.932,176.265,912.689,191.97z M903.435,222.087c7.326,0,14.654-0.083,21.978,0.045
		c2.597,0.045,3.982-0.748,4.477-3.429c1.204-6.531,2.552-13.037,3.953-19.529c0.631-2.92,0.071-4.311-3.341-4.182
		c-5.986,0.225-11.986,0.022-17.98,0.078c-2.323,0.022-3.683-0.071-2.979-3.268c3.541-16.056,6.881-32.157,10.112-48.279
		c0.539-2.689,1.624-3.553,4.277-3.484c6.157,0.157,12.323-0.046,18.48,0.093c2.59,0.058,3.993-0.738,4.51-3.406
		c1.325-6.85,2.677-13.702,4.339-20.475c0.686-2.793,0.024-3.564-2.708-3.512c-5.825,0.112-11.66-0.119-17.48,0.086
		c-3.79,0.134-4.397-1.126-3.619-4.73c4.102-18.995,7.809-38.076,11.954-57.061c0.824-3.775-0.372-4.268-3.549-4.165
		c-4.99,0.161-10.026,0.424-14.974-0.063c-5.053-0.498-6.845,1.506-7.803,6.267c-4.689,23.285-9.688,46.509-14.622,69.744
		c-6.694,31.521-13.388,63.042-20.202,94.537c-0.857,3.966,0.415,4.936,4.199,4.804
		C889.441,221.915,896.441,222.088,903.435,222.087z"/>
	<path fill-rule="evenodd" clip-rule="evenodd" fill="#0E1312" d="M1021.317,191.968c14.762,0,29.072-0.014,43.384,0.006
		c6.791,0.009,7.579,0.953,6.263,7.535c-1.4,7.009-2.959,13.987-4.274,21.011c-0.61,3.26-1.955,4.786-5.596,4.766
		c-24.323-0.141-48.647-0.084-72.972-0.062c-4.242,0.004-5.538-1.852-4.644-6.016c7.293-33.957,14.472-67.938,21.704-101.909
		c1.49-6.997,1.753-7.176,8.862-7.177c22.658-0.003,45.316-0.009,67.974,0.003c7.159,0.003,7.979,1.044,6.465,7.856
		c-1.479,6.652-3.159,13.275-4.267,19.991c-0.729,4.417-2.984,5.694-7.131,5.651c-13.66-0.139-27.325,0.1-40.982-0.151
		c-3.758-0.069-5.045,1.122-5.741,4.724C1027.557,162.702,1024.412,177.144,1021.317,191.968z M1047.543,113.131
		c-11.49,0-22.982,0.111-34.469-0.076c-2.952-0.048-4.11,0.963-4.634,3.724c-1.208,6.362-2.648,12.68-3.995,19.016
		c-5.87,27.621-11.69,55.253-17.69,82.847c-0.608,2.798-0.119,3.484,2.64,3.477c23.479-0.065,46.959-0.064,70.438,0.001
		c2.477,0.007,3.605-0.957,4.062-3.311c1.297-6.687,2.574-13.382,4.141-20.007c0.767-3.238-0.224-3.848-3.314-3.812
		c-13.819,0.158-27.644-0.065-41.462,0.148c-4.312,0.066-5.862-0.548-4.709-5.481c3.442-14.719,6.471-29.541,9.305-44.391
		c0.742-3.89,2.146-5.197,6.126-5.134c14.15,0.228,28.308,0.02,42.461,0.145c2.985,0.025,4.396-0.67,4.936-3.927
		c1.057-6.383,2.529-12.715,4.178-18.976c0.933-3.541-0.2-4.335-3.543-4.295C1070.523,113.216,1059.032,113.131,1047.543,113.131z"
		/>
	<path fill-rule="evenodd" clip-rule="evenodd" fill="#130F0F" d="M521.798,237.957c5.662-1.576,8.865,1.701,10.63,7.717
		c1.069,3.643,3.046,7.009,4.343,10.599c0.873,2.417,1.836,2.983,4.279,1.746c4.446-2.249,9.124-4.038,13.618-6.198
		c2.474-1.189,4.356-0.725,6.335,1.027c8.81,7.804,8.84,7.778,4.977,18.941c-9.944,28.734-19.896,57.466-29.837,86.2
		c-0.812,2.345-1.236,5.213-4.143,5.721c-3.086,0.54-4.07-2.399-5.461-4.348c-4.537-6.36-9.093-12.714-13.401-19.229
		c-1.573-2.379-3.124-2.803-5.753-2.001c-8.104,2.473-16.313,4.602-24.409,7.098c-2.11,0.65-3.948,0.913-5.579-0.567
		c-1.869-1.698-0.763-3.755-0.136-5.568c11.082-32.029,22.347-63.997,33.198-96.104
		C512.479,237.011,516.631,238.077,521.798,237.957z M531.56,361.082c0.655-1.483,1.042-2.215,1.31-2.986
		c10.157-29.363,20.071-58.814,30.64-88.029c2.243-6.201,1.531-10.019-3.482-13.956c-2.076-1.63-3.474-1.825-5.622-0.821
		c-4.973,2.323-10.082,4.364-14.979,6.831c-2.479,1.249-3.41,0.654-4.274-1.763c-1.34-3.751-3.014-7.383-4.521-11.075
		c-3.441-8.431-3.436-8.296-12.378-8.317c-2.818-0.007-4.206,0.849-5.023,3.517c-1.506,4.912-3.293,9.737-4.975,14.596
		c-9.188,26.541-18.345,53.093-27.611,79.606c-1.156,3.31-0.677,4.26,2.867,3.198c7.796-2.337,15.71-4.301,23.433-6.853
		c3.948-1.305,6.201-0.6,8.51,2.975C520.4,345.666,525.867,352.994,531.56,361.082z"/>
	<path fill-rule="evenodd" clip-rule="evenodd" fill="#130F0F" d="M667.124,342.293c-8.229-1.873-16.851-3.668-25.371-5.854
		c-3.546-0.909-5.654-0.502-7.55,3.016c-3.861,7.164-8.308,14.01-12.415,21.044c-1.079,1.849-2.335,3.386-4.556,3.27
		c-2.154-0.113-2.834-2.026-3.551-3.737c-12.581-30.044-25.139-60.098-37.803-90.106c-1.076-2.552-0.758-4.438,1.098-6.287
		c3.775-3.763,7.562-7.515,11.291-11.323c1.862-1.902,3.811-2.274,6.305-1.203c4.579,1.967,9.357,3.489,13.853,5.621
		c3.268,1.551,4.556,0.655,5.626-2.547c1.367-4.087,3.377-7.955,4.875-12.005c1.155-3.123,3.178-4.275,6.444-4.279
		c3.102-0.005,4.863,1.153,6.064,4.031c13.114,31.441,26.332,62.84,39.477,94.27C672.523,340.055,671.132,342.363,667.124,342.293z
		 M668.935,339.467c-13.722-32.765-27.01-64.477-40.269-96.201c-0.661-1.58-1.597-2.312-3.381-2.262
		c-1.682,0.047-2.762,0.45-3.416,2.183c-1.349,3.572-2.929,7.058-4.404,10.582c-3.499,8.36-3.473,8.297-11.747,5.142
		c-4.636-1.769-9.527-5.89-13.841-4.645c-4.244,1.226-7.238,6.515-11.001,9.767c-2.451,2.118-2.468,3.981-1.236,6.884
		c10.842,25.541,21.487,51.165,32.2,76.761c1.806,4.314,3.653,8.611,5.793,13.648c5.416-9.08,10.406-17.298,15.228-25.614
		c1.561-2.692,2.959-3.951,6.537-2.996C648.816,335.228,658.404,337.108,668.935,339.467z"/>
	<path fill-rule="evenodd" clip-rule="evenodd" fill="#0D1111" d="M954.917,225.209c-3.665,0-7.329-0.026-10.993,0.007
		c-4.048,0.036-5.285-1.969-4.471-5.763c5.991-27.943,11.943-55.895,17.917-83.842c1.494-6.987,3.106-13.949,4.5-20.956
		c0.63-3.167,2.368-4.549,5.498-4.537c7.328,0.027,14.657-0.045,21.985,0.031c3.834,0.04,5.301,1.911,4.458,5.833
		c-7.437,34.598-14.831,69.204-22.137,103.829c-0.824,3.905-2.572,5.82-6.77,5.455C961.599,224.979,958.248,225.209,954.917,225.209
		z M953.904,222.088c3.425,0,6.136-0.312,8.745,0.071c4.32,0.635,5.659-1.358,6.477-5.275c6.922-33.18,13.952-66.337,21.194-99.448
		c0.886-4.052-0.418-4.469-3.764-4.357c-5.491,0.182-11.014,0.342-16.482-0.049c-3.95-0.282-5.22,1.547-5.923,4.903
		c-6.412,30.575-12.896,61.137-19.345,91.704c-0.82,3.885-3.443,9.078-1.876,11.364
		C945.033,224.067,950.622,221.472,953.904,222.088z"/>
	<path fill-rule="evenodd" clip-rule="evenodd" fill="#0C0E0E" d="M700.683,225.202c-3.494,0-6.988,0.044-10.481-0.011
		c-5.059-0.079-5.959-1.126-4.975-5.951c2.688-13.173,5.438-26.333,8.152-39.5c1.576-7.642,3.24-15.267,4.652-22.938
		c0.742-4.034,2.449-6.116,6.944-5.907c6.64,0.309,13.306,0.016,19.96,0.101c5.229,0.066,6.205,1.247,5.171,6.257
		c-4.361,21.131-8.814,42.243-13.132,63.384c-0.69,3.379-2.349,4.812-5.813,4.609C707.679,225.043,704.176,225.201,700.683,225.202z
		 M715.468,154.045c-3.333,0-6.671,0.125-9.995-0.04c-2.601-0.129-3.901,0.729-4.442,3.422c-4.09,20.373-8.224,40.739-12.554,61.063
		c-0.706,3.312,0.521,3.683,3.193,3.642c5.997-0.094,11.999-0.138,17.993,0.02c2.756,0.072,3.978-0.594,4.593-3.634
		c4.056-20.041,8.301-40.045,12.721-60.009c0.892-4.03-0.336-4.914-4.017-4.517C720.489,154.26,717.967,154.043,715.468,154.045z"/>
	<path fill-rule="evenodd" clip-rule="evenodd" fill="#0C0E0E" d="M985.456,83.193c-3.823,0-7.648-0.077-11.47,0.023
		c-3.298,0.086-4.681-1.54-4.117-4.607c1.59-8.646,3.393-17.254,4.981-25.9c0.439-2.386,1.937-2.884,3.911-2.888
		c7.979-0.018,15.959-0.044,23.938,0.012c3.275,0.023,4.346,2.021,3.765,4.96c-1.641,8.296-3.433,16.562-5.044,24.863
		c-0.511,2.631-1.958,3.6-4.494,3.556C993.104,83.145,989.279,83.194,985.456,83.193z M991.02,52.898
		c-3.155,0-6.321,0.159-9.464-0.046c-2.976-0.194-4.09,1.149-4.559,3.91c-1.11,6.532-2.364,13.045-3.74,19.527
		c-0.607,2.858,0.163,3.928,3.151,3.854c5.977-0.147,11.961-0.156,17.937,0.007c2.844,0.078,4.169-0.876,4.682-3.766
		c1.101-6.195,2.344-12.38,3.896-18.476c1.085-4.262-0.168-5.63-4.436-5.071C996.037,53.159,993.512,52.896,991.02,52.898z"/>
	<path fill-rule="evenodd" clip-rule="evenodd" fill="#0E1312" d="M298.571,149.503c-0.066,6.731-4.379,11.472-10.486,11.525
		c-6.026,0.053-10.694-4.669-10.637-10.761c0.063-6.728,5.179-12.471,11.098-12.458C294.82,137.823,298.642,142.281,298.571,149.503
		z M295.683,149.529c0.081-5.562-2.58-8.766-7.229-8.701c-4.208,0.059-8.187,4.82-8.103,9.696c0.076,4.386,3.209,7.442,7.619,7.432
		C292.601,157.944,295.608,154.659,295.683,149.529z"/>
	<path fill-rule="evenodd" clip-rule="evenodd" fill="#F99F10" d="M624.31,228.972c-9.125,0-9.125,0-12.688,8.765
		c-3.836,9.437-3.836,9.437-13.331,5.278c-8.931-3.911-8.916-3.896-15.796,2.938c-2.707,2.688-5.345,7.2-8.292,7.438
		c-3.493,0.283-6.444-4.406-8.562-7.544c-4.67-6.92-9.585-3.551-14.715-1.364c-8.159,3.479-9.184,3.771-11.599-4.459
		c-2.847-9.702-8.31-12.19-17.612-11.216c-7.684,0.805-7.75,0.164-7.725-7.742c0.035-10.409,0.035-10.409-9.966-14.58
		c-7.646-3.188-7.574-3.147-3.543-10.195c3.295-5.759,6.982-11.415,6.718-18.487c-0.097-2.57-0.335-5.034-3.24-6.137
		c-2.958-1.123-4.865,0.365-6.163,2.701c-1.166,2.1-1.993,1.827-3.592,0.379c-5.469-4.953-5.527-4.888-0.285-10.124
		c1.297-1.295,2.422-2.846,3.916-3.843c4.981-3.327,4.148-7.185,1.821-11.75c-5.511-10.814-5.402-10.898,5.615-15.634
		c1.936-0.832,3.646-2.104,5.833-2.484c2.167-0.377,3.121-1.763,2.993-4.225c-0.242-4.651,0.084-9.331-0.136-13.983
		c-0.129-2.746,0.531-4.151,3.507-3.685c0.487,0.076,0.998,0.012,1.497,0.01c14.876-0.05,15.066,0.016,19.897-14.182
		c1.219-3.581,2.645-3.522,5.26-2.214c0.879,0.439,1.706,1.089,2.636,1.304c4.561,1.053,9.005,5.554,13.011,4.154
		c4.115-1.437,7.302-6.125,10.356-9.833c3.003-3.646,5.373-3.374,8.392-0.252c2.126,2.199,4.032,4.591,6.29,6.711
		c2.136,2.006,3.394,2.809,6.11,1.432c3.75-1.9,7.835-3.142,11.568-5.067c2.665-1.375,3.608-0.426,4.519,1.926
		c1.52,3.929,3.462,7.704,4.831,11.68c1.141,3.316,2.898,4.729,6.535,4.423c4.135-0.349,8.326,0.034,12.484-0.119
		c2.959-0.108,4.351,0.913,4.147,4.018c-0.163,2.488-0.031,4.995-0.031,7.494c-0.001,8.587-0.001,8.587,8.19,11.499
		c8.824,3.137,8.845,3.145,5.785,11.599c-0.939,2.593-1.71,5.325-3.123,7.649c-1.768,2.91-0.297,5.017,1.548,6.416
		c3.903,2.961,6.852,6.773,10.309,10.096c1.656,1.592,1.013,1.956,0.093,2.898c-2.327,2.383-4.434,5.107-7.125,6.982
		c-4.756,3.312-4.806,7.052-2.101,11.51c0.168,0.276,0.285,0.583,0.422,0.877c5.043,10.859,5.043,10.859-6.398,14.936
		c-7.601,2.707-7.601,2.707-7.6,10.59c0,1.832,0,3.664-0.001,5.497c0,7.921-0.001,7.921-8.163,7.921
		C625.975,228.972,625.143,228.972,624.31,228.972z M634.025,169.145c0.208-32.882-26.102-59.943-59.638-59.96
		c-33.808-0.016-60.019,25.767-60.43,59.097c-0.409,33.194,26.861,61.171,60.593,60.67
		C607.108,228.468,634.466,203.39,634.025,169.145z"/>
	<path fill-rule="evenodd" clip-rule="evenodd" fill="#3B6478" d="M723.72,113.116c19.988,0,39.978,0.07,59.966-0.064
		c3.604-0.024,4.447,0.706,3.629,4.486c-7.278,33.614-14.353,67.272-21.396,100.937c-0.601,2.872-1.97,3.768-4.783,3.681
		c-5.658-0.173-11.338-0.282-16.985,0.024c-4.283,0.232-4.575-1.61-3.83-5.076c5.101-23.714,9.976-47.479,15.215-71.161
		c1.007-4.549,0.134-5.817-4.554-5.776c-21.986,0.191-43.978,0.244-65.961-0.04c-4.796-0.062-6.198,1.834-7.049,6.039
		c-4.842,23.936-10.006,47.806-14.791,71.753c-0.687,3.437-2.013,4.357-5.227,4.241c-5.489-0.199-10.994-0.154-16.487-0.016
		c-2.593,0.066-3.399-0.852-3.487-3.449c-0.255-7.572-0.01-8.08,7.084-10.987c2.919-1.196,5.762-2.578,8.636-3.884
		c3.052-1.386,2.543-4.037,2.056-6.458c-0.356-1.763-0.929-3.665-1.981-5.074c-5.184-6.944-2.565-12.021,3.535-16.484
		c1.062-0.777,1.905-1.857,2.842-2.806c2.543-2.575,2.695-5.197,0.134-7.859c-0.693-0.72-1.306-1.573-2.123-2.109
		c-7.298-4.79-8.097-11.177-5.286-18.937c3.001-8.285,3.506-17.172,5.363-25.744c0.832-3.842,2.185-5.423,6.517-5.36
		C684.405,113.276,704.063,113.116,723.72,113.116z"/>
	<path fill-rule="evenodd" clip-rule="evenodd" fill="#4EBBB1" d="M477.898,100.672c-1.116,26.78-9.41,51.501-21.637,75.081
		c-4.064,7.838-8.392,15.54-13.878,22.483c-1.874,2.372-1.395,3.937,0.328,6.029c7.805,9.479,19.192,11.729,29.974,5.59
		c9.589-5.46,15.771-14.142,21.397-23.272c2.093-3.397,3.959-6.935,5.942-10.399c0.588-1.025,1.264-2.155,2.647-1.835
		c1.398,0.324,1.466,1.676,1.536,2.829c0.165,2.688-0.113,5.331-1.223,7.82c-4.941,11.083-11.422,21.028-21.03,28.711
		c-8.222,6.573-17.548,9.361-27.969,8.143c-9.878-1.154-17.479-5.971-22.519-14.68c-4.35-7.515-6.137-15.814-7.098-24.256
		c-3.414-29.983-0.144-59.072,12.27-86.845c2.934-6.564,6.389-12.802,11.315-18.117c10.103-10.901,23.259-8.131,27.806,5.943
		C477.513,89.317,478.036,94.965,477.898,100.672z M436.379,193.781c1.807-2.641,2.938-4.26,4.034-5.901
		c15.005-22.479,21.191-48.156,26.429-74.083c1.567-7.756,2.118-15.839,0.288-23.793c-0.757-3.293-1.477-6.869-5.294-7.734
		c-3.509-0.795-5.83,1.846-7.949,4.201c-3.253,3.615-5.603,7.84-7.666,12.203c-5.856,12.391-9.323,25.522-11.961,38.913
		C430.606,156.133,431.217,174.504,436.379,193.781z"/>
	<path fill-rule="evenodd" clip-rule="evenodd" fill="#4EBBB1" d="M364.377,182.088c3.929-6.581,7.453-12.84,12.485-17.99
		c5.186-5.307,10.962-9.252,19.002-7.505c11.095,2.412,17.736,13.271,15.845,26.854c-1.549,11.127-6.088,21.104-13.545,29.554
		c-8.951,10.144-16.467,11.417-29.088,5.07c0,2.416-0.012,4.65,0.002,6.884c0.166,27.63,1.022,55.311-6.121,82.396
		c-1.32,5.007-3.17,9.81-5.821,14.274c-4.758,8.014-11,10.984-19.153,9.16c-7.054-1.579-11.958-7.485-12.904-15.965
		c-1.257-11.257,0.725-22.278,3.273-33.136c6.626-28.232,15.649-55.687,27.69-82.107c2.948-6.47,0.688-18.043-4.676-23.511
		c-0.441,0.491-1.001,0.911-1.293,1.47c-5.68,10.895-14.788,19.296-21.431,29.516c-3.267,5.027-8.062,8.864-13.376,11.824
		c-13.11,7.303-26.729,2.395-32.431-11.447c-3.66-8.885-3.152-17.887-1.477-27.007c0.451-2.453,0.792-4.932,1.366-7.355
		c0.939-3.969,3.952-4.741,7.357-4.092c3.592,0.686,4.01,3.104,3.31,6.449c-1.741,8.315-3.046,16.698-1.53,25.246
		c1.917,10.809,10.328,14.884,20.068,9.659c4.331-2.322,7.795-5.674,10.982-9.328c4.614-5.289,9.154-10.846,11.828-17.241
		c3.083-7.376,10.169-10.943,14.276-17.238c1.739-2.665,4.787-1.726,7.12,0.038c2.605,1.971,4.131,4.762,5.332,7.719
		C362.45,176.697,363.297,179.171,364.377,182.088z M358.274,215.969c-9.203,19.515-16.122,39.736-20.322,60.811
		c-2.498,12.532-5.197,25.115-3.213,38.049c0.457,2.98,0.915,6.324,4.391,7.132c3.767,0.876,6.226-1.694,8.213-4.515
		c3.614-5.133,5.349-11.051,6.735-17.057C360.508,272.543,359.645,244.304,358.274,215.969z M366.676,205.702
		c4.048-3.766,5.092-0.936,6.604,1.432c3.349,5.242,8.144,6.46,13.829,3.776c3.292-1.554,5.66-4.097,7.457-7.149
		c5.085-8.639,7.645-17.995,7.582-28.031c-0.027-4.271-1.47-7.823-5.546-9.838c-4-1.978-8.131-1.653-11.236,1.216
		C374.504,177.144,366.45,188.716,366.676,205.702z"/>
	<path fill-rule="evenodd" clip-rule="evenodd" fill="#4EBBB2" d="M208.666,46.261c15.352,0.382,32.23,1.604,48.182,8.424
		c20.494,8.763,30.438,25.044,29.36,47.407c-0.977,20.272-8.855,37.812-21.189,53.385c-28.352,35.798-65.475,57.319-110.034,66.391
		c-12.087,2.461-24.333,3.691-36.601,4.765c-2.2,0.192-4.428,0.099-6.178-1.386c-1.795-1.522-3.501-3.411-2.893-5.972
		c0.694-2.918,3.328-2.216,5.397-2.201c12.786,0.089,12.48,0.143,11.049-12.226c-2.057-17.779-1.207-35.606,0.751-53.333
		c2.885-26.129,6.375-52.187,10.52-78.151c0.603-3.778,0-5.153-4.287-3.594c-10.484,3.813-20.91,7.715-30.832,12.854
		c-3.413,1.768-6.64,3.765-9.308,6.624c-1.541,1.651-3.337,3.981-5.849,1.757c-2.558-2.265-4.527-5.083-2.594-8.79
		c1.447-2.774,3.954-4.508,6.594-5.94c27.656-15.001,57.124-24.354,88.344-28.211C188.359,46.918,197.651,46.318,208.666,46.261z
		 M207.049,56.825c-16.871,0.13-33.473,2.362-50.031,5.576c-5.928,1.15-8.158,3.846-9.292,9.4
		c-6.352,31.099-8.53,62.612-10.071,94.215c-0.723,14.828-0.625,29.604,1.275,44.351c0.451,3.501,1.228,5.082,5.611,4.068
		c33.105-7.66,63.371-21.252,89.751-42.803c18.687-15.266,33.264-33.599,39.133-57.63c2.418-9.9,4.156-19.916-0.017-29.887
		c-4.597-10.984-13.581-16.987-24.136-21.013C235.689,57.924,221.456,56.715,207.049,56.825z"/>
	<path fill-rule="evenodd" clip-rule="evenodd" fill="#3B6478" d="M820.986,222.082c-11.157,0-22.317-0.112-33.473,0.063
		c-3.697,0.058-5.001-0.618-4.074-4.753c3.417-15.236,6.495-30.55,9.611-45.853c0.511-2.508,1.534-3.731,4.29-3.668
		c6.491,0.15,12.989,0.113,19.483,0.012c2.293-0.036,2.835,0.676,2.324,2.916c-1.553,6.801-2.77,13.68-4.42,20.453
		c-0.686,2.812-0.398,3.939,2.793,3.853c6.323-0.171,12.656-0.111,18.982-0.019c2.207,0.032,3.219-0.694,3.683-2.974
		c3.309-16.281,6.663-32.554,10.224-48.781c0.903-4.118-1.826-3.07-3.706-3.078c-13.988-0.062-27.979-0.154-41.966,0.045
		c-3.819,0.054-4.956-0.752-3.914-4.707c1.692-6.418,2.964-12.955,4.172-19.487c0.433-2.342,1.555-2.99,3.702-2.987
		c23.482,0.03,46.964,0.032,70.445,0.008c4.538-0.005,3.018,3.085,2.569,5.241c-3.311,15.941-6.766,31.852-10.151,47.777
		c-3.592,16.898-7.237,33.786-10.674,50.717c-0.772,3.808-2.026,5.521-6.433,5.358C843.312,221.808,832.145,222.082,820.986,222.082
		z"/>
	<path fill-rule="evenodd" clip-rule="evenodd" fill="#3B6478" d="M903.435,222.087c-6.993,0.001-13.993-0.172-20.978,0.07
		c-3.784,0.132-5.057-0.838-4.199-4.804c6.814-31.495,13.508-63.017,20.202-94.537c4.935-23.235,9.933-46.459,14.622-69.744
		c0.958-4.761,2.75-6.765,7.803-6.267c4.947,0.487,9.983,0.225,14.974,0.063c3.177-0.103,4.373,0.39,3.549,4.165
		c-4.146,18.984-7.853,38.065-11.954,57.061c-0.778,3.604-0.171,4.864,3.619,4.73c5.82-0.205,11.655,0.026,17.48-0.086
		c2.732-0.053,3.394,0.719,2.708,3.512c-1.662,6.772-3.014,13.625-4.339,20.475c-0.517,2.668-1.92,3.464-4.51,3.406
		c-6.157-0.139-12.323,0.064-18.48-0.093c-2.653-0.068-3.738,0.795-4.277,3.484c-3.231,16.122-6.571,32.224-10.112,48.279
		c-0.704,3.196,0.655,3.29,2.979,3.268c5.994-0.056,11.994,0.146,17.98-0.078c3.412-0.129,3.972,1.262,3.341,4.182
		c-1.401,6.492-2.749,12.998-3.953,19.529c-0.494,2.681-1.88,3.474-4.477,3.429C918.089,222.004,910.761,222.087,903.435,222.087z"
		/>
	<path fill-rule="evenodd" clip-rule="evenodd" fill="#3B6478" d="M1047.543,113.131c11.489,0,22.98,0.085,34.469-0.053
		c3.343-0.04,4.476,0.754,3.543,4.295c-1.648,6.261-3.121,12.593-4.178,18.976c-0.539,3.257-1.95,3.952-4.936,3.927
		c-14.153-0.125-28.311,0.083-42.461-0.145c-3.98-0.063-5.384,1.244-6.126,5.134c-2.834,14.85-5.862,29.672-9.305,44.391
		c-1.153,4.934,0.397,5.548,4.709,5.481c13.818-0.214,27.643,0.01,41.462-0.148c3.091-0.035,4.081,0.574,3.314,3.812
		c-1.566,6.625-2.844,13.32-4.141,20.007c-0.456,2.354-1.585,3.317-4.062,3.311c-23.479-0.065-46.959-0.066-70.438-0.001
		c-2.759,0.008-3.248-0.679-2.64-3.477c6-27.594,11.82-55.226,17.69-82.847c1.347-6.336,2.787-12.653,3.995-19.016
		c0.523-2.761,1.682-3.771,4.634-3.724C1024.561,113.242,1036.053,113.131,1047.543,113.131z"/>
	<path fill-rule="evenodd" clip-rule="evenodd" fill="#FC3F34" d="M531.56,361.082c-5.692-8.088-11.159-15.416-16.108-23.078
		c-2.309-3.574-4.562-4.279-8.51-2.975c-7.723,2.552-15.637,4.516-23.433,6.853c-3.544,1.062-4.023,0.111-2.867-3.198
		c9.267-26.514,18.424-53.065,27.611-79.606c1.682-4.858,3.469-9.684,4.975-14.596c0.817-2.668,2.205-3.523,5.023-3.517
		c8.942,0.021,8.937-0.113,12.378,8.317c1.508,3.692,3.182,7.324,4.521,11.075c0.864,2.417,1.795,3.012,4.274,1.763
		c4.897-2.467,10.007-4.508,14.979-6.831c2.148-1.004,3.546-0.809,5.622,0.821c5.014,3.938,5.726,7.755,3.482,13.956
		c-10.568,29.215-20.482,58.666-30.64,88.029C532.602,358.867,532.215,359.599,531.56,361.082z"/>
	<path fill-rule="evenodd" clip-rule="evenodd" fill="#FC3F34" d="M668.935,339.467c-10.53-2.358-20.118-4.239-29.537-6.752
		c-3.578-0.955-4.977,0.304-6.537,2.996c-4.821,8.316-9.812,16.534-15.228,25.614c-2.14-5.037-3.987-9.334-5.793-13.648
		c-10.713-25.596-21.358-51.22-32.2-76.761c-1.231-2.902-1.215-4.766,1.236-6.884c3.763-3.252,6.757-8.541,11.001-9.767
		c4.313-1.245,9.205,2.876,13.841,4.645c8.274,3.155,8.248,3.219,11.747-5.142c1.476-3.524,3.056-7.01,4.404-10.582
		c0.654-1.732,1.734-2.136,3.416-2.183c1.784-0.051,2.72,0.682,3.381,2.262C641.925,274.99,655.213,306.702,668.935,339.467z"/>
	<path fill-rule="evenodd" clip-rule="evenodd" fill="#3B6478" d="M953.904,222.088c-3.282-0.616-8.871,1.979-10.974-1.087
		c-1.567-2.286,1.056-7.479,1.876-11.364c6.449-30.567,12.933-61.129,19.345-91.704c0.703-3.356,1.973-5.186,5.923-4.903
		c5.469,0.391,10.991,0.23,16.482,0.049c3.346-0.111,4.649,0.306,3.764,4.357c-7.242,33.111-14.272,66.269-21.194,99.448
		c-0.817,3.917-2.156,5.91-6.477,5.275C960.04,221.775,957.329,222.088,953.904,222.088z"/>
	<path fill-rule="evenodd" clip-rule="evenodd" fill="#3B6478" d="M715.468,154.044c2.499-0.001,5.021,0.216,7.492-0.052
		c3.681-0.397,4.908,0.486,4.017,4.517c-4.42,19.964-8.665,39.968-12.721,60.009c-0.615,3.04-1.837,3.706-4.593,3.634
		c-5.994-0.157-11.996-0.113-17.993-0.02c-2.673,0.041-3.899-0.329-3.193-3.642c4.33-20.324,8.464-40.69,12.554-61.063
		c0.541-2.692,1.842-3.551,4.442-3.422C708.797,154.17,712.135,154.045,715.468,154.044z"/>
	<path fill-rule="evenodd" clip-rule="evenodd" fill="#3B6478" d="M991.02,52.897c2.492-0.001,5.018,0.262,7.467-0.059
		c4.268-0.559,5.521,0.81,4.436,5.071c-1.552,6.096-2.795,12.28-3.896,18.476c-0.513,2.89-1.838,3.844-4.682,3.766
		c-5.976-0.163-11.96-0.154-17.937-0.007c-2.988,0.073-3.759-0.996-3.151-3.854c1.376-6.482,2.63-12.995,3.74-19.527
		c0.469-2.761,1.583-4.104,4.559-3.91C984.698,53.058,987.864,52.898,991.02,52.897z"/>
	<path fill-rule="evenodd" clip-rule="evenodd" fill="#4EBBB1" d="M295.683,149.529c-0.075,5.13-3.082,8.415-7.712,8.427
		c-4.41,0.011-7.543-3.046-7.619-7.432c-0.084-4.876,3.895-9.638,8.103-9.696C293.103,140.764,295.764,143.967,295.683,149.529z"/>
	<path fill-rule="evenodd" clip-rule="evenodd" fill="#050505" d="M634.025,169.145c0.44,34.245-26.917,59.323-59.475,59.807
		c-33.731,0.501-61.002-27.476-60.593-60.67c0.411-33.33,26.622-59.112,60.43-59.097
		C607.924,109.201,634.233,136.263,634.025,169.145z M631.018,169.396c-0.541-32.67-24.788-57.056-56.61-57.037
		c-32.733,0.019-56.935,23.67-57.267,56.091c-0.325,31.895,24.575,57.522,56.842,57.329
		C606.033,225.587,630.644,202.017,631.018,169.396z"/>
	<path fill-rule="evenodd" clip-rule="evenodd" fill="#0D1111" d="M436.379,193.781c-5.162-19.277-5.772-37.648-2.119-56.194
		c2.638-13.391,6.104-26.522,11.961-38.913c2.063-4.363,4.413-8.588,7.666-12.203c2.119-2.355,4.44-4.996,7.949-4.201
		c3.817,0.865,4.537,4.441,5.294,7.734c1.83,7.954,1.279,16.037-0.288,23.793c-5.237,25.927-11.424,51.604-26.429,74.083
		C439.316,189.521,438.186,191.141,436.379,193.781z M437.703,186.625c1.815-2.906,3.079-4.836,4.251-6.821
		c11.157-18.887,16.082-39.949,21.058-60.961c1.885-7.959,2.463-16.145,1.773-24.321c-0.284-3.361,0.134-8.082-3.633-9.081
		c-3.446-0.914-5.418,3.256-7.271,5.895c-5.998,8.545-9.412,18.28-12.303,28.193C435.274,141.149,432.483,163.006,437.703,186.625z"
		/>
	<path fill-rule="evenodd" clip-rule="evenodd" fill="#0E1312" d="M358.274,215.969c1.371,28.335,2.233,56.574-4.196,84.42
		c-1.386,6.006-3.121,11.924-6.735,17.057c-1.987,2.82-4.446,5.391-8.213,4.515c-3.476-0.808-3.934-4.151-4.391-7.132
		c-1.984-12.934,0.715-25.517,3.213-38.049C342.153,255.705,349.071,235.483,358.274,215.969z M355.644,229.639
		c-8.469,20.58-14.738,41.64-17.521,63.612c-0.936,7.388-2.034,14.845-0.259,22.296c0.338,1.42,0.341,3.168,2.191,3.484
		c1.623,0.277,2.827-0.773,3.825-1.941c2.409-2.821,3.929-6.121,5.112-9.602c4.367-12.854,5.75-26.251,6.723-39.648
		C356.637,255.135,356.888,242.378,355.644,229.639z"/>
	<path fill-rule="evenodd" clip-rule="evenodd" fill="#0E1312" d="M366.676,205.702c-0.227-16.986,7.828-28.559,18.69-38.595
		c3.105-2.869,7.236-3.193,11.236-1.216c4.076,2.015,5.519,5.567,5.546,9.838c0.062,10.036-2.497,19.393-7.582,28.031
		c-1.797,3.053-4.166,5.596-7.457,7.149c-5.685,2.684-10.479,1.466-13.829-3.776C371.769,204.767,370.725,201.937,366.676,205.702z
		 M399.21,178.095c0.18-3.994-0.071-7.964-4.333-9.768c-4.077-1.726-7.4,0.343-10.353,3.065c-0.367,0.338-0.733,0.682-1.063,1.056
		c-5.907,6.693-9.847,14.562-13.488,22.608c-0.902,1.993-0.781,4.796,0.776,5.363c2.776,1.01,3.756,3.086,5,5.165
		c2.458,4.108,5.969,4.356,9.909,2.706c3.572-1.497,5.655-4.542,7.416-7.797C396.855,193.508,398.729,185.987,399.21,178.095z"/>
	<path fill-rule="evenodd" clip-rule="evenodd" fill="#0E1312" d="M207.049,56.825c14.406-0.11,28.64,1.099,42.224,6.278
		c10.555,4.025,19.539,10.028,24.136,21.013c4.173,9.971,2.436,19.986,0.017,29.887c-5.869,24.031-20.446,42.364-39.133,57.63
		c-26.381,21.551-56.646,35.143-89.751,42.803c-4.383,1.014-5.161-0.567-5.611-4.068c-1.9-14.746-1.998-29.522-1.275-44.351
		c1.541-31.603,3.719-63.116,10.071-94.215c1.134-5.555,3.364-8.25,9.292-9.4C173.577,59.188,190.178,56.955,207.049,56.825z
		 M142.271,211.984c35.827-8.408,68.103-22.824,95.377-47.228c16.851-15.076,29.327-32.923,33.913-55.566
		c4.495-22.189-2.962-35.831-24.243-43.637c-4.184-1.534-8.562-2.717-12.951-3.486c-23.091-4.046-46.06-2.289-68.955,1.824
		c-14.08,2.53-13.982,2.532-16.436,16.525c-4.202,23.955-6.288,48.142-7.745,72.375
		C140.055,172.365,139.034,191.982,142.271,211.984z"/>
	<path fill-rule="evenodd" clip-rule="evenodd" fill="#130F0F" d="M621.02,169.737c0.983,25.128-21.41,47.104-47.456,46.913
		c-25.289-0.187-46.932-22.082-46.749-47.424c0.188-26.077,21.52-46.923,46.995-47.104
		C600.012,121.936,622.015,143.621,621.02,169.737z M617.947,169.763c0.05-24.711-19.132-44.29-43.619-44.521
		c-24.306-0.229-44.225,19.568-44.244,43.973c-0.02,24.376,19.212,43.949,43.433,44.204
		C598.094,213.678,617.898,194.219,617.947,169.763z"/>
	<path fill-rule="evenodd" clip-rule="evenodd" fill="#FCDB58" d="M617.947,169.763c-0.049,24.456-19.854,43.915-44.431,43.655
		c-24.221-0.255-43.452-19.828-43.433-44.204c0.02-24.404,19.938-44.202,44.244-43.973
		C598.815,125.473,617.997,145.052,617.947,169.763z"/>
</g>
</svg>
